<svg width="20" height="20" viewBox="0 0 20 20" fill="none" xmlns="http://www.w3.org/2000/svg">
<path d="M2.045 13.3837C2.27941 13.6181 2.59729 13.7497 2.92875 13.7497C3.2602 13.7497 3.57809 13.6181 3.8125 13.3837L10 7.19625L16.1875 13.3837C16.4233 13.6114 16.739 13.7374 17.0668 13.7346C17.3945 13.7317 17.708 13.6003 17.9398 13.3685C18.1715 13.1368 18.303 12.8232 18.3058 12.4955C18.3087 12.1678 18.1827 11.852 17.955 11.6162L10.8837 4.545C10.6493 4.31066 10.3315 4.17902 10 4.17902C9.66854 4.17902 9.35066 4.31066 9.11625 4.545L2.045 11.6162C1.81066 11.8507 1.67902 12.1685 1.67902 12.5C1.67902 12.8315 1.81066 13.1493 2.045 13.3837Z" fill="white"/>
</svg>
