<svg width="18" height="18" viewBox="0 0 18 18" fill="none" xmlns="http://www.w3.org/2000/svg">
<path d="M1 14.9999C1 13.9391 1.42142 12.9217 2.17155 12.1716C2.92168 11.4214 3.93908 11 4.99993 11H12.9998C14.0606 11 15.078 11.4214 15.8282 12.1716C16.5783 12.9217 16.9997 13.9391 16.9997 14.9999C16.9997 15.5304 16.789 16.0391 16.4139 16.4141C16.0389 16.7892 15.5302 16.9999 14.9998 16.9999H2.99997C2.46954 16.9999 1.96084 16.7892 1.58578 16.4141C1.21071 16.0391 1 15.5304 1 14.9999Z" stroke="#D4D4D8" stroke-width="1.5" stroke-linejoin="round"/>
<path d="M9.0019 6.9999C10.6587 6.9999 12.0018 5.65677 12.0018 3.99995C12.0018 2.34312 10.6587 1 9.0019 1C7.34508 1 6.00195 2.34312 6.00195 3.99995C6.00195 5.65677 7.34508 6.9999 9.0019 6.9999Z" stroke="#D4D4D8" stroke-width="1.5"/>
</svg>
