<?xml version="1.0" standalone="no"?>
<!DOCTYPE svg PUBLIC "-//W3C//DTD SVG 20010904//EN"
 "http://www.w3.org/TR/2001/REC-SVG-20010904/DTD/svg10.dtd">
<svg version="1.0" xmlns="http://www.w3.org/2000/svg"
 width="18.000000pt" height="18.000000pt" viewBox="0 0 512.000000 512.000000"
 preserveAspectRatio="xMidYMid meet">

<g transform="translate(0.000000,512.000000) scale(0.100000,-0.100000)"
fill="#ffffff" stroke="none">
<path d="M1140 4464 c-234 -50 -436 -254 -485 -489 -22 -105 -22 -2725 0
-2830 38 -182 169 -351 336 -433 153 -76 66 -72 1569 -72 1502 0 1418 -3 1570
71 164 81 298 255 335 434 23 108 22 1439 -1 1493 -33 79 -110 132 -194 132
-88 0 -152 -38 -193 -115 -22 -40 -22 -47 -27 -746 l-5 -706 -27 -39 c-15 -21
-44 -50 -65 -64 l-37 -25 -1356 0 -1356 0 -37 25 c-21 14 -50 43 -65 64 l-27
39 -3 1347 -2 1346 23 45 c13 24 43 58 66 74 l43 30 706 5 707 5 45 25 c67 38
103 96 108 174 5 71 -14 120 -65 168 -63 60 -38 58 -800 57 -557 0 -711 -3
-763 -15z"/>
<path d="M3165 4436 c-134 -59 -166 -248 -59 -348 57 -53 84 -58 321 -58 l218
0 -512 -512 c-354 -354 -517 -525 -528 -550 -21 -52 -19 -131 4 -176 37 -71
113 -122 183 -122 93 0 81 -10 631 538 l517 517 0 -201 c0 -242 9 -282 74
-342 106 -98 264 -71 329 57 l27 55 0 493 c0 424 -2 499 -16 531 -19 47 -58
88 -106 113 -35 18 -65 19 -545 19 -400 -1 -514 -4 -538 -14z"/>
</g>
</svg>
